# xmcd
#
# Track frame offsets:
#	150
#	15217
#	32990
#	43105
#	57615
#	69300
#	80757
#	95502
#	111982
#	129370
#
# Disc length: 1906 seconds
#
# Revision: 0
# Processed by: cddbd v1.4PL0 Copyright (c) Steve Scherf et al.
# Submitted via: EasyCDDAExtractor 4.6.9.1
#
DISCID=8407700a
DTITLE=Herman Huet - Tel Quel
DYEAR=1900
DGENRE=
TTITLE0=La Dame De Coeur
TTITLE1=Dis-Moi Pourquoi
TTITLE2=Au Fond De Toi
TTITLE3=Te Dire Maman
TTITLE4=Si Tu M'Avait detester
TTITLE5=Le Drageur
TTITLE6=Merci Pour La Radio
TTITLE7=Je Suis Un Chanteur Country
TTITLE8=Mon Pere 
TTITLE9=Matelots
EXTD=
EXTT0=
EXTT1=
EXTT2=
EXTT3=
EXTT4=
EXTT5=
EXTT6=
EXTT7=
EXTT8=
EXTT9=
PLAYORDER=
